<svg width="1024" height="1024" viewBox="0 0 1024 1024" fill="none" xmlns="http://www.w3.org/2000/svg">
<g clip-path="url(#clip0_9_2)">
<path d="M1024 0H0V1024H1024V0Z" fill="white"/>
<path d="M512 799L1225.6 -85.25H-201.605L512 799Z" fill="#D9D9D9"/>
<path d="M512 799L1078.92 -85.25H-54.9245L512 799Z" fill="#676767"/>
<path d="M423 491.607H415.205L419.103 484.857L424.237 475.966L424.237 475.966L508.103 330.75L512 324.002L515.897 330.75L604.897 484.857L608.795 491.607H601H423ZM512 365.707L451.333 470.753H572.667L512 365.707Z" fill="#FEFEFE" stroke="#FFFAFA" stroke-width="9"/>
<path d="M423 531.5H415.205L419.103 538.25L424.237 547.141L424.237 547.141L508.103 692.358L512 699.105L515.897 692.358L604.897 538.25L608.795 531.5H601H423ZM512 657.401L451.333 552.354H572.667L512 657.401Z" fill="black" stroke="#020202" stroke-width="9"/>
</g>
<defs>
<clipPath id="clip0_9_2">
<rect width="1024" height="1024" fill="white"/>
</clipPath>
</defs>
</svg>
