<svg width="1024" height="1024" viewBox="0 0 1024 1024" fill="none" xmlns="http://www.w3.org/2000/svg">
<g clip-path="url(#clip0_4_29)">
<rect width="1024" height="1024" fill="white"/>
<rect width="1036" height="1024" fill="black"/>
<path d="M523.114 247.75L512.289 229L501.463 247.75L306.175 586L287.318 618.661L321.948 603.729L321.949 603.729L321.949 603.728L321.96 603.724L322.012 603.702L322.241 603.604C322.448 603.515 322.765 603.381 323.185 603.203C324.025 602.849 325.282 602.323 326.916 601.651C330.186 600.306 334.966 598.375 340.957 596.054C352.945 591.408 369.74 585.213 388.948 579.022C427.726 566.524 474.982 554.5 512.289 554.5C549.596 554.5 596.852 566.524 635.63 579.022C654.837 585.213 671.632 591.408 683.621 596.054C689.611 598.375 694.391 600.306 697.661 601.651C699.296 602.323 700.552 602.849 701.393 603.203C701.813 603.381 702.129 603.515 702.337 603.604L702.566 603.702L702.618 603.724L702.628 603.728L702.63 603.729L737.26 618.661L718.403 586L523.114 247.75Z" stroke="#1793D1" stroke-width="25"/>
<path d="M434.991 661.75L512.5 796L590.009 661.75H434.991Z" stroke="#1793D1" stroke-width="25"/>
</g>
<defs>
<clipPath id="clip0_4_29">
<rect width="1024" height="1024" fill="white"/>
</clipPath>
</defs>
</svg>
