<svg width="1024" height="1024" viewBox="0 0 1024 1024" fill="none" xmlns="http://www.w3.org/2000/svg">
<g clip-path="url(#clip0_1_2)">
<rect width="1024" height="1024" fill="white"/>
<rect width="1036" height="1024" fill="black"/>
<g opacity="0.5">
<path fill-rule="evenodd" clip-rule="evenodd" d="M-9.55602 539.515L642.566 1587.61L342.875 1590.22L168.774 1308.64L-6.56897 1588.72L-155.474 1588.66L-231.74 1466.41L18.0717 1067.87L-159.262 781.55L-9.55602 539.515Z" fill="#192E3D"/>
<path fill-rule="evenodd" clip-rule="evenodd" d="M225.82 107.792L-426.412 1155.83L-578.693 916.33L-402.912 635.645L-752.01 634.794L-826.412 515.119L-750.437 392.714L-253.532 394.169L-74.9477 108.518L225.82 107.792Z" fill="#192E3D"/>
<path fill-rule="evenodd" clip-rule="evenodd" d="M275.857 945.58L1580.21 945.639L1432.8 1187.75L1082.92 1186.85L1256.67 1467.78L1182.17 1587.4L1029.93 1587.56L782.837 1187.56L426.919 1186.89L275.857 945.58Z" fill="#192E3D"/>
<path fill-rule="evenodd" clip-rule="evenodd" d="M1035.04 486.354L382.916 -561.746L682.607 -564.354L856.707 -282.769L1032.05 -562.849L1180.96 -562.795L1257.22 -440.546L1007.41 -42.0023L1184.74 244.319L1035.04 486.354Z" fill="#192E3D"/>
<path fill-rule="evenodd" clip-rule="evenodd" d="M-9.55602 539.515L642.566 1587.61L342.875 1590.22L168.774 1308.64L-6.56897 1588.72L-155.474 1588.66L-231.74 1466.41L18.0717 1067.87L-159.262 781.551L-9.55602 539.515Z" fill="#15121A"/>
<path fill-rule="evenodd" clip-rule="evenodd" d="M746.931 77.8821L-557.424 77.8228L-410.013 -164.288L-60.1317 -163.388L-233.886 -444.319L-159.383 -563.94L-7.14296 -564.096L239.951 -164.097L595.869 -163.427L746.931 77.8821Z" fill="#15121A"/>
<path fill-rule="evenodd" clip-rule="evenodd" d="M798.18 917.916L1450.41 -130.124L1602.69 109.378L1426.91 390.063L1776.01 390.914L1850.41 510.589L1774.44 632.994L1277.53 631.539L1098.95 917.19L798.18 917.916Z" fill="#15121A"/>
</g>
<path d="M520.949 249L512.289 234L503.628 249L308.34 587.25L293.254 613.379L320.959 601.433L320.959 601.433L320.96 601.432L320.972 601.427L321.026 601.404C321.077 601.382 321.155 601.349 321.26 601.304C321.471 601.214 321.79 601.079 322.214 600.9C323.061 600.543 324.324 600.014 325.965 599.339C329.249 597.988 334.045 596.051 340.053 593.723C352.075 589.064 368.917 582.852 388.181 576.643C426.999 564.132 474.568 552 512.289 552C550.009 552 597.578 564.132 636.397 576.643C655.66 582.852 672.502 589.064 684.524 593.723C690.532 596.051 695.328 597.988 698.612 599.339C700.254 600.014 701.517 600.543 702.364 600.9C702.787 601.079 703.107 601.214 703.317 601.304C703.423 601.349 703.501 601.382 703.551 601.404L703.606 601.427L703.617 601.432L703.618 601.433L703.619 601.433L731.323 613.379L716.238 587.25L520.949 249Z" stroke="url(#paint0_linear_1_2)" stroke-width="20"/>
<path d="M436.661 659.25L518.5 801L600.339 659.25H436.661Z" stroke="url(#paint1_linear_1_2)" stroke-width="20"/>
</g>
<defs>
<linearGradient id="paint0_linear_1_2" x1="512.289" y1="254" x2="512.289" y2="592.25" gradientUnits="userSpaceOnUse">
<stop offset="0.175" stop-color="#5283FF"/>
<stop offset="0.86" stop-color="#9BD0F7"/>
<stop offset="1" stop-color="#999999"/>
</linearGradient>
<linearGradient id="paint1_linear_1_2" x1="518.5" y1="592" x2="518.5" y2="821" gradientUnits="userSpaceOnUse">
<stop stop-color="white"/>
<stop offset="0.66" stop-color="#FAB78E"/>
<stop offset="1" stop-color="#FFFF21"/>
</linearGradient>
<clipPath id="clip0_1_2">
<rect width="1024" height="1024" fill="white"/>
</clipPath>
</defs>
</svg>
