{
	"asset":{
		"generator":"Khronos glTF Blender I/O v4.1.63",
		"version":"2.0"
	},
	"scene":0,
	"scenes":[
		{
			"name":"Scene",
			"nodes":[
				0
			]
		}
	],
	"nodes":[
		{
			"mesh":0,
			"name":"King Black",
			"translation":[
				-0.0173161793500185,
				-0.020132271572947502,
				-0.1292348951101303
			]
		}
	],
	"materials":[
		{
			"doubleSided":true,
			"name":"negru",
			"pbrMetallicRoughness":{
				"baseColorFactor":[
					0.014348696917295456,
					0.0042154863476753235,
					0.0015387915773317218,
					1
				],
				"metallicFactor":0
			}
		},
		{
			"doubleSided":true,
			"name":"Gold",
			"pbrMetallicRoughness":{
				"baseColorFactor":[
					0.8996698260307312,
					0.8070318698883057,
					0,
					1
				],
				"metallicFactor":0
			}
		}
	],
	"meshes":[
		{
			"name":"mesh0_mesh.007",
			"primitives":[
				{
					"attributes":{
						"POSITION":0,
						"NORMAL":1,
						"TEXCOORD_0":2
					},
					"indices":3,
					"material":0
				},
				{
					"attributes":{
						"POSITION":4,
						"NORMAL":5,
						"TEXCOORD_0":6
					},
					"indices":7,
					"material":1
				}
			]
		}
	],
	"accessors":[
		{
			"bufferView":0,
			"componentType":5126,
			"count":1636,
			"max":[
				0.014398688450455666,
				0.06858000159263611,
				0.01447799988090992
			],
			"min":[
				-0.014398688450455666,
				0,
				-0.01447799988090992
			],
			"type":"VEC3"
		},
		{
			"bufferView":1,
			"componentType":5126,
			"count":1636,
			"type":"VEC3"
		},
		{
			"bufferView":2,
			"componentType":5126,
			"count":1636,
			"type":"VEC2"
		},
		{
			"bufferView":3,
			"componentType":5123,
			"count":5790,
			"type":"SCALAR"
		},
		{
			"bufferView":4,
			"componentType":5126,
			"count":2366,
			"max":[
				0.014398688450455666,
				0.06858000159263611,
				0.01447799988090992
			],
			"min":[
				-0.014398688450455666,
				0.00361949997022748,
				-0.01447799988090992
			],
			"type":"VEC3"
		},
		{
			"bufferView":5,
			"componentType":5126,
			"count":2366,
			"type":"VEC3"
		},
		{
			"bufferView":6,
			"componentType":5126,
			"count":2366,
			"type":"VEC2"
		},
		{
			"bufferView":7,
			"componentType":5123,
			"count":11118,
			"type":"SCALAR"
		}
	],
	"bufferViews":[
		{
			"buffer":0,
			"byteLength":19632,
			"byteOffset":0,
			"target":34962
		},
		{
			"buffer":0,
			"byteLength":19632,
			"byteOffset":19632,
			"target":34962
		},
		{
			"buffer":0,
			"byteLength":13088,
			"byteOffset":39264,
			"target":34962
		},
		{
			"buffer":0,
			"byteLength":11580,
			"byteOffset":52352,
			"target":34963
		},
		{
			"buffer":0,
			"byteLength":28392,
			"byteOffset":63932,
			"target":34962
		},
		{
			"buffer":0,
			"byteLength":28392,
			"byteOffset":92324,
			"target":34962
		},
		{
			"buffer":0,
			"byteLength":18928,
			"byteOffset":120716,
			"target":34962
		},
		{
			"buffer":0,
			"byteLength":22236,
			"byteOffset":139644,
			"target":34963
		}
	],
	"buffers":[
		{
			"byteLength":161880,
			"uri":"Premium_B_King.bin"
		}
	]
}
