{
	"asset":{
		"generator":"Khronos glTF Blender I/O v4.1.63",
		"version":"2.0"
	},
	"scene":0,
	"scenes":[
		{
			"name":"Scene",
			"nodes":[
				0
			]
		}
	],
	"nodes":[
		{
			"mesh":0,
			"name":"Rook",
			"translation":[
				0.014664837159216404,
				0.017315462231636047,
				0.1326262205839157
			]
		}
	],
	"materials":[
		{
			"doubleSided":true,
			"name":"Alb",
			"pbrMetallicRoughness":{
				"baseColorFactor":[
					1,
					0.8078431487083435,
					0.501960813999176,
					1
				],
				"metallicFactor":0
			}
		},
		{
			"doubleSided":true,
			"name":"Gold",
			"pbrMetallicRoughness":{
				"baseColorFactor":[
					0.8996698260307312,
					0.8070318698883057,
					0,
					1
				],
				"metallicFactor":0
			}
		}
	],
	"meshes":[
		{
			"name":"mesh0_mesh.014",
			"primitives":[
				{
					"attributes":{
						"POSITION":0,
						"NORMAL":1,
						"TEXCOORD_0":2
					},
					"indices":3,
					"material":0
				},
				{
					"attributes":{
						"POSITION":4,
						"NORMAL":5,
						"TEXCOORD_0":6
					},
					"indices":7,
					"material":1
				}
			]
		}
	],
	"accessors":[
		{
			"bufferView":0,
			"componentType":5126,
			"count":1324,
			"max":[
				0.014209231361746788,
				0.04762500151991844,
				0.014287499710917473
			],
			"min":[
				-0.014209231361746788,
				0,
				-0.014287499710917473
			],
			"type":"VEC3"
		},
		{
			"bufferView":1,
			"componentType":5126,
			"count":1324,
			"type":"VEC3"
		},
		{
			"bufferView":2,
			"componentType":5126,
			"count":1324,
			"type":"VEC2"
		},
		{
			"bufferView":3,
			"componentType":5123,
			"count":5028,
			"type":"SCALAR"
		},
		{
			"bufferView":4,
			"componentType":5126,
			"count":1076,
			"max":[
				0.014209231361746788,
				0.04762500151991844,
				0.014287499710917473
			],
			"min":[
				-0.014209231361746788,
				0.00361949997022748,
				-0.014287499710917473
			],
			"type":"VEC3"
		},
		{
			"bufferView":5,
			"componentType":5126,
			"count":1076,
			"type":"VEC3"
		},
		{
			"bufferView":6,
			"componentType":5126,
			"count":1076,
			"type":"VEC2"
		},
		{
			"bufferView":7,
			"componentType":5123,
			"count":4896,
			"type":"SCALAR"
		}
	],
	"bufferViews":[
		{
			"buffer":0,
			"byteLength":15888,
			"byteOffset":0,
			"target":34962
		},
		{
			"buffer":0,
			"byteLength":15888,
			"byteOffset":15888,
			"target":34962
		},
		{
			"buffer":0,
			"byteLength":10592,
			"byteOffset":31776,
			"target":34962
		},
		{
			"buffer":0,
			"byteLength":10056,
			"byteOffset":42368,
			"target":34963
		},
		{
			"buffer":0,
			"byteLength":12912,
			"byteOffset":52424,
			"target":34962
		},
		{
			"buffer":0,
			"byteLength":12912,
			"byteOffset":65336,
			"target":34962
		},
		{
			"buffer":0,
			"byteLength":8608,
			"byteOffset":78248,
			"target":34962
		},
		{
			"buffer":0,
			"byteLength":9792,
			"byteOffset":86856,
			"target":34963
		}
	],
	"buffers":[
		{
			"byteLength":96648,
			"uri":"Premium_W_Rook.bin"
		}
	]
}
