{
	"asset":{
		"generator":"Khronos glTF Blender I/O v4.1.63",
		"version":"2.0"
	},
	"scene":0,
	"scenes":[
		{
			"name":"Scene",
			"nodes":[
				0
			]
		}
	],
	"nodes":[
		{
			"mesh":0,
			"name":"Knight",
			"translation":[
				-0.029072105884552002,
				-0.02963109314441681,
				0.14669397473335266
			]
		}
	],
	"materials":[
		{
			"doubleSided":true,
			"name":"Alb",
			"pbrMetallicRoughness":{
				"baseColorFactor":[
					1,
					0.8078431487083435,
					0.501960813999176,
					1
				],
				"metallicFactor":0
			}
		},
		{
			"doubleSided":true,
			"name":"Gold",
			"pbrMetallicRoughness":{
				"baseColorFactor":[
					0.8996698260307312,
					0.8070318698883057,
					0,
					1
				],
				"metallicFactor":0
			}
		}
	],
	"meshes":[
		{
			"name":"mesh0_mesh.008",
			"primitives":[
				{
					"attributes":{
						"POSITION":0,
						"NORMAL":1,
						"TEXCOORD_0":2
					},
					"indices":3,
					"material":0
				},
				{
					"attributes":{
						"POSITION":4,
						"NORMAL":5,
						"TEXCOORD_0":6
					},
					"indices":7,
					"material":1
				}
			]
		}
	],
	"accessors":[
		{
			"bufferView":0,
			"componentType":5126,
			"count":5219,
			"max":[
				0.01447799988090992,
				0.056673813611269,
				0.014398688450455666
			],
			"min":[
				-0.01447799988090992,
				-9.768279049266881e-22,
				-0.014398688450455666
			],
			"type":"VEC3"
		},
		{
			"bufferView":1,
			"componentType":5126,
			"count":5219,
			"type":"VEC3"
		},
		{
			"bufferView":2,
			"componentType":5126,
			"count":5219,
			"type":"VEC2"
		},
		{
			"bufferView":3,
			"componentType":5123,
			"count":15879,
			"type":"SCALAR"
		},
		{
			"bufferView":4,
			"componentType":5126,
			"count":15606,
			"max":[
				0.01447799988090992,
				0.056530777364969254,
				0.014398688450455666
			],
			"min":[
				-0.01447799988090992,
				0.004322128836065531,
				-0.014398688450455666
			],
			"type":"VEC3"
		},
		{
			"bufferView":5,
			"componentType":5126,
			"count":15606,
			"type":"VEC3"
		},
		{
			"bufferView":6,
			"componentType":5126,
			"count":15606,
			"type":"VEC2"
		},
		{
			"bufferView":7,
			"componentType":5123,
			"count":77919,
			"type":"SCALAR"
		}
	],
	"bufferViews":[
		{
			"buffer":0,
			"byteLength":62628,
			"byteOffset":0,
			"target":34962
		},
		{
			"buffer":0,
			"byteLength":62628,
			"byteOffset":62628,
			"target":34962
		},
		{
			"buffer":0,
			"byteLength":41752,
			"byteOffset":125256,
			"target":34962
		},
		{
			"buffer":0,
			"byteLength":31758,
			"byteOffset":167008,
			"target":34963
		},
		{
			"buffer":0,
			"byteLength":187272,
			"byteOffset":198768,
			"target":34962
		},
		{
			"buffer":0,
			"byteLength":187272,
			"byteOffset":386040,
			"target":34962
		},
		{
			"buffer":0,
			"byteLength":124848,
			"byteOffset":573312,
			"target":34962
		},
		{
			"buffer":0,
			"byteLength":155838,
			"byteOffset":698160,
			"target":34963
		}
	],
	"buffers":[
		{
			"byteLength":854000,
			"uri":"Premium_W_Knight.bin"
		}
	]
}
