<svg width="531" height="493" viewBox="0 0 531 493" fill="none" xmlns="http://www.w3.org/2000/svg">
<path d="M149 91.264C143.048 91.264 138.344 90.688 134.888 89.728C131.432 88.768 129.704 87.424 129.704 85.696L131.048 66.208C123.944 58.72 120.488 52 120.488 46.144C120.488 38.08 124.904 32.992 132.2 32.992C136.424 32.992 140.072 34.528 143.144 37.6L142.76 31.264C142.568 28.864 144.296 27.424 147.368 26.944V21.568H143.432V19.264H147.368V15.712H150.632V19.264H154.568V21.568H150.632V26.944C153.704 27.424 155.432 28.864 155.24 31.456L154.856 37.6C157.832 34.528 161.48 32.992 165.8 32.992C173.096 32.992 177.512 38.08 177.512 46.144C177.512 51.616 174.728 57.856 166.952 66.208L168.296 85.696C168.296 87.424 166.568 88.864 163.112 89.824C159.56 90.784 154.952 91.264 149 91.264ZM149 47.488C149.768 45.088 150.728 43.072 151.688 41.632V32.512C151.688 30.208 150.728 29.344 149 29.344C147.176 29.344 146.312 30.4 146.312 32.512V41.632C147.176 43.072 148.04 44.992 149 47.488ZM134.312 64.288C139.112 63.328 143.432 62.848 146.984 62.848V59.776C146.984 48.64 140.552 37.024 132.392 37.024C127.592 37.024 124.808 40.576 124.808 46.624C124.808 51.52 128.84 58.624 134.312 64.288ZM163.688 64.288C169.352 58.432 173.192 51.52 173.192 46.624C173.192 40.864 170.6 37.024 165.608 37.024C157.352 37.024 151.016 48.832 151.016 59.392V62.848C154.088 62.848 159.56 63.52 163.688 64.288ZM134.888 73.12C136.808 72.352 143.336 71.488 149 71.488C154.28 71.488 161 72.352 163.112 73.12L162.632 67.552C158.408 66.496 153.896 65.92 149 65.92C144.008 65.92 139.496 66.496 135.368 67.552L134.888 73.12ZM134.408 81.472C137.768 80.32 142.664 79.744 149 79.744C155.336 79.744 160.136 80.32 163.592 81.472L163.304 76.192C158.888 74.944 154.088 74.272 149 74.272C143.912 74.272 138.248 75.136 134.696 76.192L134.408 81.472ZM149 88.48C159.08 88.48 164.168 87.52 164.168 85.504C164.168 84.64 162.824 83.776 160.232 83.296C157.544 82.816 153.8 82.528 149 82.528C144.2 82.528 140.552 82.72 137.864 83.296C135.176 83.872 133.832 84.64 133.832 85.504C133.832 87.52 138.92 88.48 149 88.48Z" fill="black"/>
<path d="M365 91.264C359.048 91.264 354.344 90.688 350.888 89.728C347.432 88.768 345.704 87.424 345.704 85.696L345.992 65.344L337.16 38.272C336.776 38.368 336.2 38.464 335.432 38.464C331.784 38.464 329 35.68 329 31.744C329 28.192 331.976 25.408 335.528 25.408C339.272 25.408 342.056 28.192 342.056 31.936C342.056 34.048 340.904 36.352 339.176 37.408L350.984 56.512L348.968 30.592H348.776C345.416 30.592 342.344 27.712 342.344 24.064C342.344 20.512 345.128 17.44 348.776 17.44C352.328 17.44 355.4 20.224 355.4 23.968C355.4 26.752 353.864 29.152 351.176 30.112L359.816 54.496L363.848 27.328C360.872 26.848 358.472 24.256 358.472 20.896C358.472 17.248 361.352 14.368 365 14.368C368.552 14.368 371.528 17.152 371.528 20.896C371.528 24.256 369.128 26.848 366.152 27.328L370.184 54.496L378.824 30.112C376.136 29.152 374.6 26.752 374.6 23.968C374.6 20.224 377.672 17.44 381.224 17.44C384.872 17.44 387.656 20.512 387.656 24.064C387.656 27.616 384.584 30.592 381.224 30.592H381.032L379.016 56.512L390.824 37.408C389.096 36.352 387.944 34.048 387.944 31.936C387.944 28.192 390.728 25.408 394.472 25.408C398.12 25.408 401 28.192 401 31.744C401 35.776 398.12 38.464 394.568 38.464C393.8 38.464 393.224 38.368 392.84 38.272L384.008 65.344L384.296 85.696C384.296 87.424 382.568 88.864 379.112 89.824C375.656 90.784 370.952 91.264 365 91.264ZM365.096 24.448C366.92 24.448 368.456 22.912 368.456 20.8C368.456 18.88 366.92 17.44 364.904 17.44C363.08 17.44 361.544 18.88 361.544 20.8C361.544 22.912 362.984 24.448 365.096 24.448ZM348.968 27.616C350.984 27.616 352.424 26.08 352.424 24.16C352.424 22.144 351.08 20.608 348.776 20.608C346.952 20.608 345.416 22.048 345.416 23.968C345.416 26.08 346.856 27.616 348.968 27.616ZM381.032 27.616C383.24 27.616 384.584 26.08 384.584 23.968C384.584 22.048 383.048 20.608 381.224 20.608C378.824 20.608 377.576 22.144 377.576 24.16C377.576 26.08 379.016 27.616 381.032 27.616ZM335.528 35.488C337.544 35.488 338.984 33.952 338.984 32.032C338.984 30.016 337.64 28.48 335.336 28.48C333.512 28.48 331.976 29.92 331.976 31.84C331.976 33.952 333.416 35.488 335.528 35.488ZM394.472 35.488C396.584 35.488 398.024 33.952 398.024 31.84C398.024 29.92 396.488 28.48 394.664 28.48C392.36 28.48 391.016 30.016 391.016 32.032C391.016 33.952 392.456 35.488 394.472 35.488ZM361.832 62.464C362.888 62.368 363.944 62.368 365 62.368C366.056 62.368 367.112 62.368 368.168 62.464L365 35.392L361.832 62.464ZM354.728 63.136C355.976 62.944 357.32 62.752 358.856 62.656L352.136 40.48L354.728 63.136ZM375.272 63.136L377.864 40.48L371.144 62.656C372.68 62.752 374.024 62.944 375.272 63.136ZM348.488 64.48L351.944 63.616L342.728 47.584L348.488 64.48ZM381.512 64.48L387.272 47.584L378.056 63.616L381.512 64.48ZM350.408 70.144C354.152 68.896 359.048 68.224 365 68.224C370.952 68.224 375.848 68.896 379.592 70.144V66.976C376.52 66.016 370.28 65.056 365 65.056C359.912 65.056 353.384 66.016 350.408 66.976V70.144ZM350.312 75.904C354.152 74.656 358.952 73.984 365 73.984C371.048 73.984 375.944 74.656 379.688 75.904V72.736C376.52 71.68 369.992 70.816 365 70.816C359.816 70.816 353.576 71.68 350.312 72.736V75.904ZM350.216 81.472C353.672 80.32 358.568 79.744 365 79.744C371.432 79.744 376.328 80.32 379.784 81.472V78.496C376.616 77.44 370.472 76.576 365 76.576C359.72 76.576 353.384 77.44 350.216 78.496V81.472ZM365 88.48C374.984 88.48 379.976 87.52 379.976 85.504C379.976 84.64 378.632 83.776 376.04 83.296C373.352 82.816 369.704 82.528 365 82.528C360.296 82.528 356.648 82.72 354.056 83.296C351.368 83.872 350.024 84.544 350.024 85.504C350.024 87.52 355.016 88.48 365 88.48Z" fill="black"/>
<path d="M451.896 277V268.264H457.656V261.736H461.688L465.336 255.208V226.024L461.688 219.496H457.656V207.976H469.56V210.76H475.32V208.36H490.776V210.76H496.536V207.976H508.44V219.496H504.312L500.76 226.024V255.208L504.312 261.736H508.44V268.264H514.2V277H451.896ZM461.784 216.808H504.312V211.144H499.032V213.928H488.28V211.528H477.816V213.928H467.064V211.144H461.784V216.808ZM468.12 223.336H498.168L499.992 219.976H466.104L468.12 223.336ZM469.464 254.728H496.632V226.504H469.464V254.728ZM466.104 261.256H499.992L498.072 257.896H467.928L466.104 261.256ZM461.784 267.784H504.312V264.424H461.784V267.784ZM456.024 274.312H510.072V270.952H456.024V274.312Z" fill="black"/>
<path d="M339.688 473.704V464.392C341.704 462.568 345.64 461.224 350.152 461.224H363.976C366.952 461.224 368.488 461.032 368.488 459.016C361.096 458.536 357.448 456.904 357.448 454.312C357.448 453.928 357.544 453.544 357.736 453.16L361.096 444.52C356.584 441.736 353.8 435.976 353.8 429.928C353.8 421.672 360.04 413.704 370.312 407.944C368.68 406.984 367.624 405.256 367.624 403.24C367.624 400.264 370.024 397.864 373 397.864C375.976 397.864 378.376 400.264 378.376 403.24C378.376 405.256 377.32 406.984 375.688 407.944C385.96 413.704 392.2 421.672 392.2 429.928C392.2 435.976 389.416 441.736 384.904 444.52L388.264 453.16C388.456 453.544 388.552 453.928 388.552 454.312C388.552 456.904 384.904 458.536 377.512 459.016C377.512 461.032 379.048 461.224 382.024 461.224H395.848C400.36 461.224 404.296 462.568 406.312 464.392V473.704H403.912C403.432 470.92 401.032 469.576 396.616 469.576H378.664C375.88 469.576 373.96 468.712 373 466.984C372.04 468.712 370.12 469.576 367.336 469.576H349.384C344.968 469.576 342.568 470.92 342.088 473.704H339.688ZM373 406.024C374.536 406.024 375.784 404.776 375.784 403.24C375.784 401.8 374.536 400.552 373 400.552C371.464 400.552 370.216 401.8 370.216 403.24C370.216 404.776 371.464 406.024 373 406.024ZM373 443.656C382.024 443.656 387.88 438.376 387.88 429.832C387.88 421.864 381.64 413.992 373 409.672C364.36 413.992 358.12 421.864 358.12 429.832C358.12 438.376 363.976 443.656 373 443.656ZM371.368 440.968V423.88H363.688V420.808H371.368V413.128H374.632V420.808H382.312V423.88H374.632V440.968H371.368ZM362.44 450.472C365.32 449.608 368.776 449.128 373 449.128C377.224 449.128 380.68 449.608 383.56 450.472L381.64 445.768C379.336 446.248 376.936 446.536 373 446.536C369.064 446.536 366.664 446.248 364.36 445.768L362.44 450.472ZM373 456.712C376.36 456.712 379.144 456.52 381.256 456.04C383.464 455.56 384.616 454.984 384.616 454.312C384.616 453.64 383.56 453.064 381.352 452.584C379.24 452.104 376.456 451.912 373 451.912C369.544 451.912 366.76 452.104 364.648 452.584C362.44 453.064 361.384 453.64 361.384 454.312C361.384 454.984 362.536 455.56 364.744 456.04C366.856 456.52 369.64 456.712 373 456.712ZM342.184 469.384C343.528 467.656 346.6 466.792 350.536 466.792H367.336C371.944 466.792 372.136 464.2 372.136 459.112H370.504C370.504 462.376 368.68 464.008 365.032 464.008H350.44C346.312 464.008 343.528 464.776 342.376 466.312L342.184 469.384ZM403.816 469.384L403.624 466.312C402.472 464.776 399.688 464.008 395.56 464.008H380.968C377.32 464.008 375.496 462.376 375.496 459.112H373.864C373.864 464.2 374.056 466.792 378.664 466.792H395.464C399.4 466.792 402.472 467.656 403.816 469.384Z" fill="black"/>
<path d="M32.256 277C32.256 270.76 34.08 265.096 36 262.408C36.96 261.064 39.072 258.664 42.528 255.208C46.656 251.08 48.192 248.872 48.192 246.184C48.192 245.704 48.096 244.84 48 244.456H47.616C47.424 245.512 45.6 247.912 43.008 248.68C41.76 249.064 39.648 249.352 36.672 249.64C35.136 250.696 33.408 252.424 31.488 255.016C29.568 257.512 27.84 258.76 26.304 258.76C22.944 258.76 20.928 258.088 19.68 256.072L15.36 249.256C16.224 247.624 17.184 245.032 18.336 241.768C19.488 238.408 20.736 236.104 21.792 234.76C22.848 233.416 23.808 231.304 24.576 228.52C26.112 222.952 26.784 221.032 32.16 218.056C32.736 216.232 33.024 214.216 33.024 212.2C33.024 210.184 32.736 208.168 32.256 206.152H34.56C37.92 207.4 40.032 209.704 40.704 212.872H41.28C41.76 211.72 42.048 208.456 42.048 206.632C42.048 205.48 41.952 204.232 41.856 203.368H45.216C49.056 205.48 51.552 209.992 51.552 214.888C63.36 218.248 74.304 230.152 77.952 247.816C79.776 256.648 80.64 266.056 80.64 276.136V277H32.256ZM37.728 271.816H74.688V269.224C74.688 235.336 61.632 220.936 47.136 216.808C47.328 215.56 47.424 214.504 47.424 213.448C47.424 210.856 46.464 208.552 44.544 206.632C44.64 207.304 44.64 207.88 44.64 208.552C44.64 211.816 43.68 215.368 42.528 216.808H38.112V215.848C38.112 212.776 37.536 211.432 35.52 209.8C35.808 210.856 35.904 212.008 35.904 213.448C35.904 217.192 34.944 220.456 34.08 221.128C33.696 221.416 32.832 222.088 31.68 223.048C29.76 224.68 28.992 226.888 27.36 231.976C26.88 233.512 26.208 234.664 25.344 235.624C24.576 236.488 23.424 238.696 22.272 241.864C21.12 245.032 20.16 247.432 19.488 248.584L20.352 250.216C22.752 254.728 22.944 254.92 26.304 254.92C27.552 254.92 28.704 254.536 30.432 251.944C31.584 250.312 34.08 247.72 35.424 246.568C35.904 246.568 41.184 245.512 43.008 244.84C44.832 244.168 46.08 242.44 46.176 241.48H50.688L52.128 246.664C51.936 249.064 51.264 251.272 49.92 252.808L45.984 257.128C40.32 263.272 37.728 266.536 37.728 271.432V271.816ZM65.856 270.568C66.336 267.016 66.528 262.792 66.528 257.992C66.528 238.312 62.496 231.112 54.528 224.392L55.392 223.816C61.344 227.56 67.872 235.528 70.368 249.064C71.616 255.88 72.192 262.984 72.192 270.568H65.856ZM34.368 229.576C32.832 229.576 31.872 229.384 31.392 229L31.296 228.616V227.944C31.296 226.6 32.736 225.736 34.848 225.736C35.616 225.736 36.48 225.928 37.248 226.12L39.936 226.888V227.752L39.168 227.656C38.208 227.656 37.44 228.04 36.768 228.616C36.096 229.192 35.232 229.576 34.368 229.576ZM24.768 250.216C24 250.12 22.656 249.16 22.176 248.104C22.848 245.416 25.152 243.688 28.704 243.496L29.088 243.976C26.496 245.8 25.152 248.488 24.768 250.216Z" fill="black"/>
<path d="M125.856 469V465.448C125.856 450.472 133.344 438.376 145.056 434.44C140.736 431.656 138.528 428.104 138.528 423.592C138.528 416.872 142.944 411.592 150.72 409.192C148.032 408.232 146.304 405.928 146.304 402.952C146.304 399.016 150.048 396.52 156 396.52C161.856 396.52 165.696 399.016 165.696 402.952C165.696 405.928 163.872 408.328 161.28 409.192C168.96 411.592 173.472 416.872 173.472 423.592C173.472 428.104 171.264 431.656 166.944 434.44C178.848 438.376 186.144 450.568 186.144 465.448V469H125.856ZM131.616 463.72H180.384C180.384 451.336 172.8 440.488 160.8 436.552V432.904C165.888 430.6 168.384 427.432 168.384 423.4C168.384 417.448 164.736 413.32 157.44 410.824V407.848C160.224 406.696 161.568 404.968 161.568 402.952C161.568 400.936 159.456 399.208 156 399.208C152.544 399.208 150.432 400.936 150.432 402.952C150.432 404.968 151.776 406.696 154.56 407.848V410.824C147.264 413.32 143.616 417.448 143.616 423.4C143.616 427.432 146.112 430.6 151.2 432.904V436.552C139.2 440.488 131.616 451.336 131.616 463.72Z" fill="black"/>
</svg>
