<?xml version="1.0" encoding="UTF-8" standalone="no"?>
<svg
   width="1080"
   height="1080"
   viewBox="0 0 1080 1080"
   fill="none"
   version="1.1"
   id="svg11"
   sodipodi:docname="Loader.svg"
   xml:space="preserve"
   inkscape:version="1.3.2 (091e20ef0f, 2023-11-25)"
   xmlns:inkscape="http://www.inkscape.org/namespaces/inkscape"
   xmlns:sodipodi="http://sodipodi.sourceforge.net/DTD/sodipodi-0.dtd"
   xmlns="http://www.w3.org/2000/svg"
   xmlns:svg="http://www.w3.org/2000/svg"><defs
     id="defs11" /><sodipodi:namedview
     id="namedview11"
     pagecolor="#505050"
     bordercolor="#eeeeee"
     borderopacity="1"
     inkscape:showpageshadow="0"
     inkscape:pageopacity="0"
     inkscape:pagecheckerboard="0"
     inkscape:deskcolor="#505050"
     inkscape:zoom="0.57550635"
     inkscape:cx="493.47848"
     inkscape:cy="516.06728"
     inkscape:window-width="1914"
     inkscape:window-height="1041"
     inkscape:window-x="0"
     inkscape:window-y="0"
     inkscape:window-maximized="1"
     inkscape:current-layer="layer1" /><g
     inkscape:groupmode="layer"
     id="layer4"
     inkscape:label="Background"
     sodipodi:insensitive="true"><rect
       style="fill:#f9f9f9;stroke-width:1.16031;stroke-linecap:square"
       id="rect27"
       width="1104.4282"
       height="1098.9575"
       x="-14.104427"
       y="-5.4096384" /></g><g
     inkscape:groupmode="layer"
     id="layer1"
     inkscape:label="Loading parts"
     style="display:inline"><path
       d="M 583.02734,244.16016 548,279.1875 v 111.09961 a 150,150 0 0 1 117.92578,68.23828 l 95.88477,-55.35937 12.93359,-48.26758 A 299,299 0 0 0 583.02734,244.16016 Z"
       style="fill:#d9d9d9"
       id="path27" /><path
       d="m 689.94727,538.5 h 128.99414 l 19.78125,-9.44336 A 299,299 0 0 0 817.89062,429.9043 l -48.08007,-12.88282 -95.99024,55.42188 A 150,150 0 0 1 689.94727,538.5 Z"
       style="fill:#d9d9d9"
       id="path26"
       inkscape:label="path26" /><path
       d="m 818.94141,542.5 h -129.1875 a 150,150 0 0 1 -16.44336,64.76367 l 96.5,55.71485 47.36328,-12.69141 a 299,299 0 0 0 20.99023,-98.61133 z"
       style="fill:#d9d9d9"
       id="path25" /><path
       d="m 241.76172,529.3457 19.17969,9.1543 h 129.20703 a 150,150 0 0 1 16.92187,-66.47656 l -96.99804,-56.00196 -46.81836,12.54493 A 299,299 0 0 0 241.76172,529.3457 Z"
       style="fill:#d9d9d9"
       id="path13" /><path
       d="m 414.61523,622.09375 -59.86132,34.5625 c 8.41467,13.33343 18.15992,25.73547 29.16601,36.91992 l 48.88477,-48.88476 a 150,150 0 0 1 -18.18946,-22.59766 z"
       style="fill:#d9d9d9"
       id="path16" /><path
       d="m 548,800.8125 35.03906,35.03906 a 299,299 0 0 0 96.63477,-32.31445 L 678.05664,782.92187 613.00391,670.24414 A 150,150 0 0 1 548,689.21094 Z"
       style="fill:#d9d9d9"
       id="path23" /><path
       d="m 532,689.21094 a 150,150 0 0 1 -29.00391,-4.44141 l -17.99804,67.17383 c 15.0975,3.90755 30.82546,6.20201 47.00195,6.78516 z"
       style="fill:#d9d9d9"
       id="path22" /><path
       d="m 532,762.73047 c -16.53489,-0.58541 -32.61082,-2.9281 -48.03906,-6.92383 l -14.85352,55.43164 3.5918,19.33399 a 299,299 0 0 0 24.26172,5.27929 L 532,800.8125 Z"
       style="fill:#d9d9d9"
       id="path21" /><path
       d="M 532,279.1875 496.96094,244.14844 A 299,299 0 0 0 305.56836,355.50195 l 12.50391,46.66407 96.54296,55.74023 A 150,150 0 0 1 532,390.78906 Z"
       style="fill:#d9d9d9"
       id="path12" /><path
       d="m 452.13867,825.53711 13.10547,-15.33399 14.83398,-55.36132 c -17.5526,-4.88539 -34.1903,-11.9272 -49.71289,-20.71289 l -28.63281,49.59375 -1.54687,19.73632 a 299,299 0 0 0 51.95312,22.07813 z"
       style="fill:#d9d9d9"
       id="path20" /><path
       d="m 432.36328,730.66602 c 15.22338,8.61287 31.53941,15.5169 48.75,20.31054 l 18.05274,-67.36914 A 150,150 0 0 1 467.18945,670.3457 Z"
       style="fill:#d9d9d9"
       id="path19" /><path
       d="m 386.7793,696.37305 c 12.64467,12.39127 26.73974,23.3063 42.08007,32.35937 l 34.79883,-60.27344 a 150,150 0 0 1 -27.99414,-20.9707 z"
       style="fill:#d9d9d9"
       id="path18" /><path
       d="m 381.48633,793.24805 16.77929,-11.52344 0.002,-0.002 28.59179,-49.52539 c -15.64398,-9.2291 -30.01747,-20.35913 -42.9082,-32.9961 l -40.39453,40.39453 -6.72461,19.00782 a 299,299 0 0 0 44.6543,34.64453 z"
       style="fill:#d9d9d9"
       id="path17" /><path
       d="m 321.7207,743.49219 19.00782,-6.72461 40.36328,-40.36328 c -11.25253,-11.43158 -21.21095,-24.11258 -29.80274,-37.74805 l -33.21679,19.17773 -12.50391,46.66407 a 299,299 0 0 0 16.15234,18.99414 z"
       style="fill:#d9d9d9"
       id="path15" /><path
       d="m 263.25391,651.43359 46.81836,12.54493 96.99804,-56.00196 A 150,150 0 0 1 390.24609,542.5 H 260.94141 l -19.10938,9.12305 a 299,299 0 0 0 21.42188,99.81054 z"
       style="fill:#d9d9d9"
       id="path14" /><path
       d="m 774.54297,724.34961 -12.73242,-47.51563 -96.04493,-55.45312 a 150,150 0 0 1 -49.23242,46.97656 l 64.98828,112.56445 17.52539,12.03711 a 299,299 0 0 0 75.4961,-68.60937 z"
       style="fill:#d9d9d9"
       id="path24" /><g
       inkscape:groupmode="layer"
       id="layer2"
       inkscape:label="Icons" /></g><g
     inkscape:groupmode="layer"
     id="layer3"
     inkscape:label="Icons 1"
     sodipodi:insensitive="true"><g
       style="fill:none"
       id="g27"
       transform="translate(269.00991,290.44825)"><path
         d="m 149,91.264 c -5.952,0 -10.656,-0.576 -14.112,-1.536 -3.456,-0.96 -5.184,-2.304 -5.184,-4.032 l 1.344,-19.488 C 123.944,58.72 120.488,52 120.488,46.144 c 0,-8.064 4.416,-13.152 11.712,-13.152 4.224,0 7.872,1.536 10.944,4.608 l -0.384,-6.336 c -0.192,-2.4 1.536,-3.84 4.608,-4.32 v -5.376 h -3.936 v -2.304 h 3.936 v -3.552 h 3.264 v 3.552 h 3.936 v 2.304 h -3.936 v 5.376 c 3.072,0.48 4.8,1.92 4.608,4.512 l -0.384,6.144 c 2.976,-3.072 6.624,-4.608 10.944,-4.608 7.296,0 11.712,5.088 11.712,13.152 0,5.472 -2.784,11.712 -10.56,20.064 l 1.344,19.488 c 0,1.728 -1.728,3.168 -5.184,4.128 -3.552,0.96 -8.16,1.44 -14.112,1.44 z m 0,-43.776 c 0.768,-2.4 1.728,-4.416 2.688,-5.856 v -9.12 c 0,-2.304 -0.96,-3.168 -2.688,-3.168 -1.824,0 -2.688,1.056 -2.688,3.168 v 9.12 c 0.864,1.44 1.728,3.36 2.688,5.856 z m -14.688,16.8 c 4.8,-0.96 9.12,-1.44 12.672,-1.44 v -3.072 c 0,-11.136 -6.432,-22.752 -14.592,-22.752 -4.8,0 -7.584,3.552 -7.584,9.6 0,4.896 4.032,12 9.504,17.664 z m 29.376,0 c 5.664,-5.856 9.504,-12.768 9.504,-17.664 0,-5.76 -2.592,-9.6 -7.584,-9.6 -8.256,0 -14.592,11.808 -14.592,22.368 v 3.456 c 3.072,0 8.544,0.672 12.672,1.44 z m -28.8,8.832 c 1.92,-0.768 8.448,-1.632 14.112,-1.632 5.28,0 12,0.864 14.112,1.632 l -0.48,-5.568 C 158.408,66.496 153.896,65.92 149,65.92 c -4.992,0 -9.504,0.576 -13.632,1.632 z m -0.48,8.352 c 3.36,-1.152 8.256,-1.728 14.592,-1.728 6.336,0 11.136,0.576 14.592,1.728 l -0.288,-5.28 c -4.416,-1.248 -9.216,-1.92 -14.304,-1.92 -5.088,0 -10.752,0.864 -14.304,1.92 z M 149,88.48 c 10.08,0 15.168,-0.96 15.168,-2.976 0,-0.864 -1.344,-1.728 -3.936,-2.208 -2.688,-0.48 -6.432,-0.768 -11.232,-0.768 -4.8,0 -8.448,0.192 -11.136,0.768 -2.688,0.576 -4.032,1.344 -4.032,2.208 0,2.016 5.088,2.976 15.168,2.976 z"
         fill="#000000"
         id="path1" /><path
         d="m 365,91.264 c -5.952,0 -10.656,-0.576 -14.112,-1.536 -3.456,-0.96 -5.184,-2.304 -5.184,-4.032 l 0.288,-20.352 -8.832,-27.072 c -0.384,0.096 -0.96,0.192 -1.728,0.192 -3.648,0 -6.432,-2.784 -6.432,-6.72 0,-3.552 2.976,-6.336 6.528,-6.336 3.744,0 6.528,2.784 6.528,6.528 0,2.112 -1.152,4.416 -2.88,5.472 l 11.808,19.104 -2.016,-25.92 h -0.192 c -3.36,0 -6.432,-2.88 -6.432,-6.528 0,-3.552 2.784,-6.624 6.432,-6.624 3.552,0 6.624,2.784 6.624,6.528 0,2.784 -1.536,5.184 -4.224,6.144 l 8.64,24.384 4.032,-27.168 c -2.976,-0.48 -5.376,-3.072 -5.376,-6.432 0,-3.648 2.88,-6.528 6.528,-6.528 3.552,0 6.528,2.784 6.528,6.528 0,3.36 -2.4,5.952 -5.376,6.432 l 4.032,27.168 8.64,-24.384 c -2.688,-0.96 -4.224,-3.36 -4.224,-6.144 0,-3.744 3.072,-6.528 6.624,-6.528 3.648,0 6.432,3.072 6.432,6.624 0,3.552 -3.072,6.528 -6.432,6.528 h -0.192 l -2.016,25.92 11.808,-19.104 c -1.728,-1.056 -2.88,-3.36 -2.88,-5.472 0,-3.744 2.784,-6.528 6.528,-6.528 3.648,0 6.528,2.784 6.528,6.336 0,4.032 -2.88,6.72 -6.432,6.72 -0.768,0 -1.344,-0.096 -1.728,-0.192 l -8.832,27.072 0.288,20.352 c 0,1.728 -1.728,3.168 -5.184,4.128 -3.456,0.96 -8.16,1.44 -14.112,1.44 z m 0.096,-66.816 c 1.824,0 3.36,-1.536 3.36,-3.648 0,-1.92 -1.536,-3.36 -3.552,-3.36 -1.824,0 -3.36,1.44 -3.36,3.36 0,2.112 1.44,3.648 3.552,3.648 z m -16.128,3.168 c 2.016,0 3.456,-1.536 3.456,-3.456 0,-2.016 -1.344,-3.552 -3.648,-3.552 -1.824,0 -3.36,1.44 -3.36,3.36 0,2.112 1.44,3.648 3.552,3.648 z m 32.064,0 c 2.208,0 3.552,-1.536 3.552,-3.648 0,-1.92 -1.536,-3.36 -3.36,-3.36 -2.4,0 -3.648,1.536 -3.648,3.552 0,1.92 1.44,3.456 3.456,3.456 z m -45.504,7.872 c 2.016,0 3.456,-1.536 3.456,-3.456 0,-2.016 -1.344,-3.552 -3.648,-3.552 -1.824,0 -3.36,1.44 -3.36,3.36 0,2.112 1.44,3.648 3.552,3.648 z m 58.944,0 c 2.112,0 3.552,-1.536 3.552,-3.648 0,-1.92 -1.536,-3.36 -3.36,-3.36 -2.304,0 -3.648,1.536 -3.648,3.552 0,1.92 1.44,3.456 3.456,3.456 z m -32.64,26.976 c 1.056,-0.096 2.112,-0.096 3.168,-0.096 1.056,0 2.112,0 3.168,0.096 L 365,35.392 Z m -7.104,0.672 c 1.248,-0.192 2.592,-0.384 4.128,-0.48 l -6.72,-22.176 z m 20.544,0 2.592,-22.656 -6.72,22.176 c 1.536,0.096 2.88,0.288 4.128,0.48 z m -26.784,1.344 3.456,-0.864 -9.216,-16.032 z m 33.024,0 5.76,-16.896 -9.216,16.032 z m -31.104,5.664 c 3.744,-1.248 8.64,-1.92 14.592,-1.92 5.952,0 10.848,0.672 14.592,1.92 v -3.168 c -3.072,-0.96 -9.312,-1.92 -14.592,-1.92 -5.088,0 -11.616,0.96 -14.592,1.92 z m -0.096,5.76 c 3.84,-1.248 8.64,-1.92 14.688,-1.92 6.048,0 10.944,0.672 14.688,1.92 v -3.168 c -3.168,-1.056 -9.696,-1.92 -14.688,-1.92 -5.184,0 -11.424,0.864 -14.688,1.92 z m -0.096,5.568 c 3.456,-1.152 8.352,-1.728 14.784,-1.728 6.432,0 11.328,0.576 14.784,1.728 v -2.976 c -3.168,-1.056 -9.312,-1.92 -14.784,-1.92 -5.28,0 -11.616,0.864 -14.784,1.92 z M 365,88.48 c 9.984,0 14.976,-0.96 14.976,-2.976 0,-0.864 -1.344,-1.728 -3.936,-2.208 -2.688,-0.48 -6.336,-0.768 -11.04,-0.768 -4.704,0 -8.352,0.192 -10.944,0.768 -2.688,0.576 -4.032,1.248 -4.032,2.208 0,2.016 4.992,2.976 14.976,2.976 z"
         fill="#000000"
         id="path2" /><path
         d="m 451.896,277 v -8.736 h 5.76 v -6.528 h 4.032 l 3.648,-6.528 v -29.184 l -3.648,-6.528 h -4.032 v -11.52 h 11.904 v 2.784 h 5.76 v -2.4 h 15.456 v 2.4 h 5.76 v -2.784 h 11.904 v 11.52 h -4.128 l -3.552,6.528 v 29.184 l 3.552,6.528 h 4.128 v 6.528 h 5.76 V 277 Z m 9.888,-60.192 h 42.528 v -5.664 h -5.28 v 2.784 H 488.28 v -2.4 h -10.464 v 2.4 h -10.752 v -2.784 h -5.28 z m 6.336,6.528 h 30.048 l 1.824,-3.36 h -33.888 z m 1.344,31.392 h 27.168 v -28.224 h -27.168 z m -3.36,6.528 h 33.888 l -1.92,-3.36 h -30.144 z m -4.32,6.528 h 42.528 v -3.36 h -42.528 z m -5.76,6.528 h 54.048 v -3.36 h -54.048 z"
         fill="#000000"
         id="path3" /><path
         d="m 339.688,473.704 v -9.312 c 2.016,-1.824 5.952,-3.168 10.464,-3.168 h 13.824 c 2.976,0 4.512,-0.192 4.512,-2.208 -7.392,-0.48 -11.04,-2.112 -11.04,-4.704 0,-0.384 0.096,-0.768 0.288,-1.152 l 3.36,-8.64 c -4.512,-2.784 -7.296,-8.544 -7.296,-14.592 0,-8.256 6.24,-16.224 16.512,-21.984 -1.632,-0.96 -2.688,-2.688 -2.688,-4.704 0,-2.976 2.4,-5.376 5.376,-5.376 2.976,0 5.376,2.4 5.376,5.376 0,2.016 -1.056,3.744 -2.688,4.704 10.272,5.76 16.512,13.728 16.512,21.984 0,6.048 -2.784,11.808 -7.296,14.592 l 3.36,8.64 c 0.192,0.384 0.288,0.768 0.288,1.152 0,2.592 -3.648,4.224 -11.04,4.704 0,2.016 1.536,2.208 4.512,2.208 h 13.824 c 4.512,0 8.448,1.344 10.464,3.168 v 9.312 h -2.4 c -0.48,-2.784 -2.88,-4.128 -7.296,-4.128 h -17.952 c -2.784,0 -4.704,-0.864 -5.664,-2.592 -0.96,1.728 -2.88,2.592 -5.664,2.592 h -17.952 c -4.416,0 -6.816,1.344 -7.296,4.128 z M 373,406.024 c 1.536,0 2.784,-1.248 2.784,-2.784 0,-1.44 -1.248,-2.688 -2.784,-2.688 -1.536,0 -2.784,1.248 -2.784,2.688 0,1.536 1.248,2.784 2.784,2.784 z m 0,37.632 c 9.024,0 14.88,-5.28 14.88,-13.824 0,-7.968 -6.24,-15.84 -14.88,-20.16 -8.64,4.32 -14.88,12.192 -14.88,20.16 0,8.544 5.856,13.824 14.88,13.824 z m -1.632,-2.688 V 423.88 h -7.68 v -3.072 h 7.68 v -7.68 h 3.264 v 7.68 h 7.68 v 3.072 h -7.68 v 17.088 z m -8.928,9.504 c 2.88,-0.864 6.336,-1.344 10.56,-1.344 4.224,0 7.68,0.48 10.56,1.344 l -1.92,-4.704 c -2.304,0.48 -4.704,0.768 -8.64,0.768 -3.936,0 -6.336,-0.288 -8.64,-0.768 z m 10.56,6.24 c 3.36,0 6.144,-0.192 8.256,-0.672 2.208,-0.48 3.36,-1.056 3.36,-1.728 0,-0.672 -1.056,-1.248 -3.264,-1.728 -2.112,-0.48 -4.896,-0.672 -8.352,-0.672 -3.456,0 -6.24,0.192 -8.352,0.672 -2.208,0.48 -3.264,1.056 -3.264,1.728 0,0.672 1.152,1.248 3.36,1.728 2.112,0.48 4.896,0.672 8.256,0.672 z m -30.816,12.672 c 1.344,-1.728 4.416,-2.592 8.352,-2.592 h 16.8 c 4.608,0 4.8,-2.592 4.8,-7.68 h -1.632 c 0,3.264 -1.824,4.896 -5.472,4.896 H 350.44 c -4.128,0 -6.912,0.768 -8.064,2.304 z m 61.632,0 -0.192,-3.072 c -1.152,-1.536 -3.936,-2.304 -8.064,-2.304 h -14.592 c -3.648,0 -5.472,-1.632 -5.472,-4.896 h -1.632 c 0,5.088 0.192,7.68 4.8,7.68 h 16.8 c 3.936,0 7.008,0.864 8.352,2.592 z"
         fill="#000000"
         id="path4" /><path
         d="m 32.256,277 c 0,-6.24 1.824,-11.904 3.744,-14.592 0.96,-1.344 3.072,-3.744 6.528,-7.2 4.128,-4.128 5.664,-6.336 5.664,-9.024 0,-0.48 -0.096,-1.344 -0.192,-1.728 h -0.384 c -0.192,1.056 -2.016,3.456 -4.608,4.224 -1.248,0.384 -3.36,0.672 -6.336,0.96 -1.536,1.056 -3.264,2.784 -5.184,5.376 -1.92,2.496 -3.648,3.744 -5.184,3.744 -3.36,0 -5.376,-0.672 -6.624,-2.688 l -4.32,-6.816 c 0.864,-1.632 1.824,-4.224 2.976,-7.488 1.152,-3.36 2.4,-5.664 3.456,-7.008 1.056,-1.344 2.016,-3.456 2.784,-6.24 1.536,-5.568 2.208,-7.488 7.584,-10.464 0.576,-1.824 0.864,-3.84 0.864,-5.856 0,-2.016 -0.288,-4.032 -0.768,-6.048 h 2.304 c 3.36,1.248 5.472,3.552 6.144,6.72 h 0.576 c 0.48,-1.152 0.768,-4.416 0.768,-6.24 0,-1.152 -0.096,-2.4 -0.192,-3.264 h 3.36 c 3.84,2.112 6.336,6.624 6.336,11.52 11.808,3.36 22.752,15.264 26.4,32.928 1.824,8.832 2.688,18.24 2.688,28.32 V 277 Z m 5.472,-5.184 h 36.96 v -2.592 c 0,-33.888 -13.056,-48.288 -27.552,-52.416 0.192,-1.248 0.288,-2.304 0.288,-3.36 0,-2.592 -0.96,-4.896 -2.88,-6.816 0.096,0.672 0.096,1.248 0.096,1.92 0,3.264 -0.96,6.816 -2.112,8.256 h -4.416 v -0.96 c 0,-3.072 -0.576,-4.416 -2.592,-6.048 0.288,1.056 0.384,2.208 0.384,3.648 0,3.744 -0.96,7.008 -1.824,7.68 -0.384,0.288 -1.248,0.96 -2.4,1.92 -1.92,1.632 -2.688,3.84 -4.32,8.928 -0.48,1.536 -1.152,2.688 -2.016,3.648 -0.768,0.864 -1.92,3.072 -3.072,6.24 -1.152,3.168 -2.112,5.568 -2.784,6.72 l 0.864,1.632 c 2.4,4.512 2.592,4.704 5.952,4.704 1.248,0 2.4,-0.384 4.128,-2.976 1.152,-1.632 3.648,-4.224 4.992,-5.376 0.48,0 5.76,-1.056 7.584,-1.728 1.824,-0.672 3.072,-2.4 3.168,-3.36 h 4.512 l 1.44,5.184 c -0.192,2.4 -0.864,4.608 -2.208,6.144 l -3.936,4.32 c -5.664,6.144 -8.256,9.408 -8.256,14.304 z m 28.128,-1.248 c 0.48,-3.552 0.672,-7.776 0.672,-12.576 0,-19.68 -4.032,-26.88 -12,-33.6 l 0.864,-0.576 c 5.952,3.744 12.48,11.712 14.976,25.248 1.248,6.816 1.824,13.92 1.824,21.504 z M 34.368,229.576 c -1.536,0 -2.496,-0.192 -2.976,-0.576 l -0.096,-0.384 v -0.672 c 0,-1.344 1.44,-2.208 3.552,-2.208 0.768,0 1.632,0.192 2.4,0.384 l 2.688,0.768 v 0.864 l -0.768,-0.096 c -0.96,0 -1.728,0.384 -2.4,0.96 -0.672,0.576 -1.536,0.96 -2.4,0.96 z m -9.6,20.64 C 24,250.12 22.656,249.16 22.176,248.104 c 0.672,-2.688 2.976,-4.416 6.528,-4.608 l 0.384,0.48 c -2.592,1.824 -3.936,4.512 -4.32,6.24 z"
         fill="#000000"
         id="path5" /><path
         d="m 125.856,469 v -3.552 c 0,-14.976 7.488,-27.072 19.2,-31.008 -4.32,-2.784 -6.528,-6.336 -6.528,-10.848 0,-6.72 4.416,-12 12.192,-14.4 -2.688,-0.96 -4.416,-3.264 -4.416,-6.24 0,-3.936 3.744,-6.432 9.696,-6.432 5.856,0 9.696,2.496 9.696,6.432 0,2.976 -1.824,5.376 -4.416,6.24 7.68,2.4 12.192,7.68 12.192,14.4 0,4.512 -2.208,8.064 -6.528,10.848 11.904,3.936 19.2,16.128 19.2,31.008 V 469 Z m 5.76,-5.28 h 48.768 c 0,-12.384 -7.584,-23.232 -19.584,-27.168 v -3.648 c 5.088,-2.304 7.584,-5.472 7.584,-9.504 0,-5.952 -3.648,-10.08 -10.944,-12.576 v -2.976 c 2.784,-1.152 4.128,-2.88 4.128,-4.896 0,-2.016 -2.112,-3.744 -5.568,-3.744 -3.456,0 -5.568,1.728 -5.568,3.744 0,2.016 1.344,3.744 4.128,4.896 v 2.976 c -7.296,2.496 -10.944,6.624 -10.944,12.576 0,4.032 2.496,7.2 7.584,9.504 v 3.648 c -12,3.936 -19.584,14.784 -19.584,27.168 z"
         fill="#000000"
         id="path6" /></g></g></svg>
