{
	"asset":{
		"generator":"Khronos glTF Blender I/O v4.1.63",
		"version":"2.0"
	},
	"scene":0,
	"scenes":[
		{
			"name":"Scene",
			"nodes":[
				0
			]
		}
	],
	"nodes":[
		{
			"mesh":0,
			"name":"Chess Board.001",
			"scale":[
				2.1235287189483643,
				2.1235287189483643,
				2.1235287189483643
			],
			"translation":[
				-0.20564410090446472,
				-0.004629440605640411,
				0.1888130009174347
			]
		}
	],
	"materials":[
		{
			"doubleSided":true,
			"name":"0.000000_0.000000_0.000000_0.000000_0.001",
			"pbrMetallicRoughness":{
				"baseColorFactor":[
					0.006433552131056786,
					0.0018134998390451074,
					0.0019994687754660845,
					1
				],
				"metallicFactor":0
			}
		},
		{
			"doubleSided":true,
			"name":"1.000000_1.000000_1.000000_0.000000_0.001",
			"pbrMetallicRoughness":{
				"baseColorFactor":[
					0.47900524735450745,
					0.16926203668117523,
					0.05613298714160919,
					1
				],
				"metallicFactor":0
			}
		}
	],
	"meshes":[
		{
			"name":"mesh0_mesh.001",
			"primitives":[
				{
					"attributes":{
						"POSITION":0,
						"NORMAL":1,
						"TEXCOORD_0":2
					},
					"indices":3,
					"material":0
				},
				{
					"attributes":{
						"POSITION":4,
						"NORMAL":5,
						"TEXCOORD_0":6
					},
					"indices":7,
					"material":1
				}
			]
		}
	],
	"accessors":[
		{
			"bufferView":0,
			"componentType":5126,
			"count":136,
			"max":[
				0.19050000607967377,
				0.005080000031739473,
				0.01269999984651804
			],
			"min":[
				-0.01269999984651804,
				0.005080000031739473,
				-0.19050000607967377
			],
			"type":"VEC3"
		},
		{
			"bufferView":1,
			"componentType":5126,
			"count":136,
			"type":"VEC3"
		},
		{
			"bufferView":2,
			"componentType":5126,
			"count":136,
			"type":"VEC2"
		},
		{
			"bufferView":3,
			"componentType":5123,
			"count":204,
			"type":"SCALAR"
		},
		{
			"bufferView":4,
			"componentType":5126,
			"count":208,
			"max":[
				0.1968500018119812,
				0.007619999814778566,
				0.019050000235438347
			],
			"min":[
				-0.019050000235438347,
				0,
				-0.1968500018119812
			],
			"type":"VEC3"
		},
		{
			"bufferView":5,
			"componentType":5126,
			"count":208,
			"type":"VEC3"
		},
		{
			"bufferView":6,
			"componentType":5126,
			"count":208,
			"type":"VEC2"
		},
		{
			"bufferView":7,
			"componentType":5123,
			"count":366,
			"type":"SCALAR"
		}
	],
	"bufferViews":[
		{
			"buffer":0,
			"byteLength":1632,
			"byteOffset":0,
			"target":34962
		},
		{
			"buffer":0,
			"byteLength":1632,
			"byteOffset":1632,
			"target":34962
		},
		{
			"buffer":0,
			"byteLength":1088,
			"byteOffset":3264,
			"target":34962
		},
		{
			"buffer":0,
			"byteLength":408,
			"byteOffset":4352,
			"target":34963
		},
		{
			"buffer":0,
			"byteLength":2496,
			"byteOffset":4760,
			"target":34962
		},
		{
			"buffer":0,
			"byteLength":2496,
			"byteOffset":7256,
			"target":34962
		},
		{
			"buffer":0,
			"byteLength":1664,
			"byteOffset":9752,
			"target":34962
		},
		{
			"buffer":0,
			"byteLength":732,
			"byteOffset":11416,
			"target":34963
		}
	],
	"buffers":[
		{
			"byteLength":12148,
			"uri":"ChessBoard.bin"
		}
	]
}
