{
	"asset":{
		"generator":"Khronos glTF Blender I/O v4.1.63",
		"version":"2.0"
	},
	"scene":0,
	"scenes":[
		{
			"name":"Scene",
			"nodes":[
				0
			]
		}
	],
	"nodes":[
		{
			"mesh":0,
			"name":"Pawn Black",
			"translation":[
				0.08284977078437805,
				0.056486666202545166,
				-0.07533163577318192
			]
		}
	],
	"materials":[
		{
			"doubleSided":true,
			"name":"negru",
			"pbrMetallicRoughness":{
				"baseColorFactor":[
					0.014348696917295456,
					0.0042154863476753235,
					0.0015387915773317218,
					1
				],
				"metallicFactor":0
			}
		},
		{
			"doubleSided":true,
			"name":"Gold",
			"pbrMetallicRoughness":{
				"baseColorFactor":[
					0.8996698260307312,
					0.8070318698883057,
					0,
					1
				],
				"metallicFactor":0
			}
		}
	],
	"meshes":[
		{
			"name":"mesh0_mesh.011",
			"primitives":[
				{
					"attributes":{
						"POSITION":0,
						"NORMAL":1,
						"TEXCOORD_0":2
					},
					"indices":3,
					"material":0
				},
				{
					"attributes":{
						"POSITION":4,
						"NORMAL":5,
						"TEXCOORD_0":6
					},
					"indices":7,
					"material":1
				}
			]
		}
	],
	"accessors":[
		{
			"bufferView":0,
			"componentType":5126,
			"count":1206,
			"max":[
				0.014209231361746788,
				0.04286250099539757,
				0.014287499710917473
			],
			"min":[
				-0.014209231361746788,
				-1.784510029480302e-18,
				-0.014287499710917473
			],
			"type":"VEC3"
		},
		{
			"bufferView":1,
			"componentType":5126,
			"count":1206,
			"type":"VEC3"
		},
		{
			"bufferView":2,
			"componentType":5126,
			"count":1206,
			"type":"VEC2"
		},
		{
			"bufferView":3,
			"componentType":5123,
			"count":5580,
			"type":"SCALAR"
		},
		{
			"bufferView":4,
			"componentType":5126,
			"count":352,
			"max":[
				0.014209231361746788,
				0.007048499770462513,
				0.014287499710917473
			],
			"min":[
				-0.014209231361746788,
				0.00361949997022748,
				-0.014287499710917473
			],
			"type":"VEC3"
		},
		{
			"bufferView":5,
			"componentType":5126,
			"count":352,
			"type":"VEC3"
		},
		{
			"bufferView":6,
			"componentType":5126,
			"count":352,
			"type":"VEC2"
		},
		{
			"bufferView":7,
			"componentType":5123,
			"count":1620,
			"type":"SCALAR"
		}
	],
	"bufferViews":[
		{
			"buffer":0,
			"byteLength":14472,
			"byteOffset":0,
			"target":34962
		},
		{
			"buffer":0,
			"byteLength":14472,
			"byteOffset":14472,
			"target":34962
		},
		{
			"buffer":0,
			"byteLength":9648,
			"byteOffset":28944,
			"target":34962
		},
		{
			"buffer":0,
			"byteLength":11160,
			"byteOffset":38592,
			"target":34963
		},
		{
			"buffer":0,
			"byteLength":4224,
			"byteOffset":49752,
			"target":34962
		},
		{
			"buffer":0,
			"byteLength":4224,
			"byteOffset":53976,
			"target":34962
		},
		{
			"buffer":0,
			"byteLength":2816,
			"byteOffset":58200,
			"target":34962
		},
		{
			"buffer":0,
			"byteLength":3240,
			"byteOffset":61016,
			"target":34963
		}
	],
	"buffers":[
		{
			"byteLength":64256,
			"uri":"Premium_B_Pawn.bin"
		}
	]
}
