{
	"asset":{
		"generator":"Khronos glTF Blender I/O v4.1.63",
		"version":"2.0"
	},
	"scene":0,
	"scenes":[
		{
			"name":"Scene",
			"nodes":[
				0
			]
		}
	],
	"nodes":[
		{
			"mesh":0,
			"name":"Bishop",
			"translation":[
				0.027921544387936592,
				0.031399503350257874,
				0.1156696230173111
			]
		}
	],
	"materials":[
		{
			"doubleSided":true,
			"name":"Gold",
			"pbrMetallicRoughness":{
				"baseColorFactor":[
					0.8996698260307312,
					0.8070318698883057,
					0,
					1
				],
				"metallicFactor":0
			}
		},
		{
			"doubleSided":true,
			"name":"Alb",
			"pbrMetallicRoughness":{
				"baseColorFactor":[
					1,
					0.8078431487083435,
					0.501960813999176,
					1
				],
				"metallicFactor":0
			}
		}
	],
	"meshes":[
		{
			"name":"mesh0_mesh.004",
			"primitives":[
				{
					"attributes":{
						"POSITION":0,
						"NORMAL":1,
						"TEXCOORD_0":2
					},
					"indices":3,
					"material":0
				},
				{
					"attributes":{
						"POSITION":4,
						"NORMAL":5,
						"TEXCOORD_0":6
					},
					"indices":7,
					"material":1
				}
			]
		}
	],
	"accessors":[
		{
			"bufferView":0,
			"componentType":5126,
			"count":487,
			"max":[
				0.014209231361746788,
				0.05285396799445152,
				0.014287499710917473
			],
			"min":[
				-0.014209231361746788,
				0.00361949997022748,
				-0.014287499710917473
			],
			"type":"VEC3"
		},
		{
			"bufferView":1,
			"componentType":5126,
			"count":487,
			"type":"VEC3"
		},
		{
			"bufferView":2,
			"componentType":5126,
			"count":487,
			"type":"VEC2"
		},
		{
			"bufferView":3,
			"componentType":5123,
			"count":2091,
			"type":"SCALAR"
		},
		{
			"bufferView":4,
			"componentType":5126,
			"count":1438,
			"max":[
				0.014209231361746788,
				0.05714999884366989,
				0.014287499710917473
			],
			"min":[
				-0.014209231361746788,
				-1.7497140566277993e-18,
				-0.014287499710917473
			],
			"type":"VEC3"
		},
		{
			"bufferView":5,
			"componentType":5126,
			"count":1438,
			"type":"VEC3"
		},
		{
			"bufferView":6,
			"componentType":5126,
			"count":1438,
			"type":"VEC2"
		},
		{
			"bufferView":7,
			"componentType":5123,
			"count":5967,
			"type":"SCALAR"
		}
	],
	"bufferViews":[
		{
			"buffer":0,
			"byteLength":5844,
			"byteOffset":0,
			"target":34962
		},
		{
			"buffer":0,
			"byteLength":5844,
			"byteOffset":5844,
			"target":34962
		},
		{
			"buffer":0,
			"byteLength":3896,
			"byteOffset":11688,
			"target":34962
		},
		{
			"buffer":0,
			"byteLength":4182,
			"byteOffset":15584,
			"target":34963
		},
		{
			"buffer":0,
			"byteLength":17256,
			"byteOffset":19768,
			"target":34962
		},
		{
			"buffer":0,
			"byteLength":17256,
			"byteOffset":37024,
			"target":34962
		},
		{
			"buffer":0,
			"byteLength":11504,
			"byteOffset":54280,
			"target":34962
		},
		{
			"buffer":0,
			"byteLength":11934,
			"byteOffset":65784,
			"target":34963
		}
	],
	"buffers":[
		{
			"byteLength":77720,
			"uri":"Premium_W_Bishop.bin"
		}
	]
}
