{
	"asset":{
		"generator":"Khronos glTF Blender I/O v4.1.63",
		"version":"2.0"
	},
	"scene":0,
	"scenes":[
		{
			"name":"Scene",
			"nodes":[
				0
			]
		}
	],
	"nodes":[
		{
			"mesh":0,
			"name":"Queen",
			"translation":[
				-0.008028957061469555,
				-0.006947389338165522,
				0.14832726120948792
			]
		}
	],
	"materials":[
		{
			"doubleSided":true,
			"name":"Alb",
			"pbrMetallicRoughness":{
				"baseColorFactor":[
					1,
					0.8078431487083435,
					0.501960813999176,
					1
				],
				"metallicFactor":0
			}
		},
		{
			"doubleSided":true,
			"name":"Gold",
			"pbrMetallicRoughness":{
				"baseColorFactor":[
					0.8996698260307312,
					0.8070318698883057,
					0,
					1
				],
				"metallicFactor":0
			}
		}
	],
	"meshes":[
		{
			"name":"mesh0_mesh.012",
			"primitives":[
				{
					"attributes":{
						"POSITION":0,
						"NORMAL":1,
						"TEXCOORD_0":2
					},
					"indices":3,
					"material":0
				},
				{
					"attributes":{
						"POSITION":4,
						"NORMAL":5,
						"TEXCOORD_0":6
					},
					"indices":7,
					"material":1
				}
			]
		}
	],
	"accessors":[
		{
			"bufferView":0,
			"componentType":5126,
			"count":1196,
			"max":[
				0.014209231361746788,
				0.05977781116962433,
				0.014287499710917473
			],
			"min":[
				-0.014209231361746788,
				-1.7497140566277993e-18,
				-0.014287499710917473
			],
			"type":"VEC3"
		},
		{
			"bufferView":1,
			"componentType":5126,
			"count":1196,
			"type":"VEC3"
		},
		{
			"bufferView":2,
			"componentType":5126,
			"count":1196,
			"type":"VEC2"
		},
		{
			"bufferView":3,
			"componentType":5123,
			"count":4674,
			"type":"SCALAR"
		},
		{
			"bufferView":4,
			"componentType":5126,
			"count":864,
			"max":[
				0.014209231361746788,
				0.061912499368190765,
				0.014287499710917473
			],
			"min":[
				-0.014209231361746788,
				0.00361949997022748,
				-0.014287499710917473
			],
			"type":"VEC3"
		},
		{
			"bufferView":5,
			"componentType":5126,
			"count":864,
			"type":"VEC3"
		},
		{
			"bufferView":6,
			"componentType":5126,
			"count":864,
			"type":"VEC2"
		},
		{
			"bufferView":7,
			"componentType":5123,
			"count":4140,
			"type":"SCALAR"
		}
	],
	"bufferViews":[
		{
			"buffer":0,
			"byteLength":14352,
			"byteOffset":0,
			"target":34962
		},
		{
			"buffer":0,
			"byteLength":14352,
			"byteOffset":14352,
			"target":34962
		},
		{
			"buffer":0,
			"byteLength":9568,
			"byteOffset":28704,
			"target":34962
		},
		{
			"buffer":0,
			"byteLength":9348,
			"byteOffset":38272,
			"target":34963
		},
		{
			"buffer":0,
			"byteLength":10368,
			"byteOffset":47620,
			"target":34962
		},
		{
			"buffer":0,
			"byteLength":10368,
			"byteOffset":57988,
			"target":34962
		},
		{
			"buffer":0,
			"byteLength":6912,
			"byteOffset":68356,
			"target":34962
		},
		{
			"buffer":0,
			"byteLength":8280,
			"byteOffset":75268,
			"target":34963
		}
	],
	"buffers":[
		{
			"byteLength":83548,
			"uri":"Premium_W_Queen.bin"
		}
	]
}
