{
	"asset":{
		"generator":"Khronos glTF Blender I/O v4.1.63",
		"version":"2.0"
	},
	"scene":0,
	"scenes":[
		{
			"name":"Scene",
			"nodes":[
				0
			]
		}
	],
	"nodes":[
		{
			"mesh":0,
			"name":"King",
			"translation":[
				0.07571152597665787,
				0.05179600045084953,
				0.08444681763648987
			]
		}
	],
	"materials":[
		{
			"doubleSided":true,
			"name":"Alb",
			"pbrMetallicRoughness":{
				"baseColorFactor":[
					1,
					0.8078431487083435,
					0.501960813999176,
					1
				],
				"metallicFactor":0
			}
		},
		{
			"doubleSided":true,
			"name":"Gold",
			"pbrMetallicRoughness":{
				"baseColorFactor":[
					0.8996698260307312,
					0.8070318698883057,
					0,
					1
				],
				"metallicFactor":0
			}
		}
	],
	"meshes":[
		{
			"name":"mesh0_mesh.006",
			"primitives":[
				{
					"attributes":{
						"POSITION":0,
						"NORMAL":1,
						"TEXCOORD_0":2
					},
					"indices":3,
					"material":0
				},
				{
					"attributes":{
						"POSITION":4,
						"NORMAL":5,
						"TEXCOORD_0":6
					},
					"indices":7,
					"material":1
				}
			]
		}
	],
	"accessors":[
		{
			"bufferView":0,
			"componentType":5126,
			"count":1618,
			"max":[
				0.009599125012755394,
				0.04571999981999397,
				0.009651999920606613
			],
			"min":[
				-0.009599125012755394,
				0,
				-0.009651999920606613
			],
			"type":"VEC3"
		},
		{
			"bufferView":1,
			"componentType":5126,
			"count":1618,
			"type":"VEC3"
		},
		{
			"bufferView":2,
			"componentType":5126,
			"count":1618,
			"type":"VEC2"
		},
		{
			"bufferView":3,
			"componentType":5123,
			"count":5790,
			"type":"SCALAR"
		},
		{
			"bufferView":4,
			"componentType":5126,
			"count":2366,
			"max":[
				0.009599125012755394,
				0.04571999981999397,
				0.009651999920606613
			],
			"min":[
				-0.009599125012755394,
				0.0024129999801516533,
				-0.009651999920606613
			],
			"type":"VEC3"
		},
		{
			"bufferView":5,
			"componentType":5126,
			"count":2366,
			"type":"VEC3"
		},
		{
			"bufferView":6,
			"componentType":5126,
			"count":2366,
			"type":"VEC2"
		},
		{
			"bufferView":7,
			"componentType":5123,
			"count":11118,
			"type":"SCALAR"
		}
	],
	"bufferViews":[
		{
			"buffer":0,
			"byteLength":19416,
			"byteOffset":0,
			"target":34962
		},
		{
			"buffer":0,
			"byteLength":19416,
			"byteOffset":19416,
			"target":34962
		},
		{
			"buffer":0,
			"byteLength":12944,
			"byteOffset":38832,
			"target":34962
		},
		{
			"buffer":0,
			"byteLength":11580,
			"byteOffset":51776,
			"target":34963
		},
		{
			"buffer":0,
			"byteLength":28392,
			"byteOffset":63356,
			"target":34962
		},
		{
			"buffer":0,
			"byteLength":28392,
			"byteOffset":91748,
			"target":34962
		},
		{
			"buffer":0,
			"byteLength":18928,
			"byteOffset":120140,
			"target":34962
		},
		{
			"buffer":0,
			"byteLength":22236,
			"byteOffset":139068,
			"target":34963
		}
	],
	"buffers":[
		{
			"byteLength":161304,
			"uri":"Premium_W_King.bin"
		}
	]
}
